<mxfile host="Electron" agent="Mozilla/5.0 (Windows NT 10.0; Win64; x64) AppleWebKit/537.36 (KHTML, like Gecko) draw.io/24.7.8 Chrome/128.0.6613.36 Electron/32.0.1 Safari/537.36" version="24.7.8" pages="2">
  <diagram id="j7u3vfIIvnQYxg0B_kr3" name="Page-1">
    <mxGraphModel dx="1037" dy="751" grid="1" gridSize="10" guides="1" tooltips="1" connect="1" arrows="1" fold="1" page="1" pageScale="1" pageWidth="1250" pageHeight="650" math="0" shadow="0">
      <root>
        <mxCell id="0" />
        <mxCell id="1" parent="0" />
        <mxCell id="lMZu1XvxjfdbiQU4B4vd-1" value="Phần cứng" style="rounded=1;whiteSpace=wrap;html=1;fontFamily=Aptos;fontSize=20;fillColor=#FF6666;strokeColor=none;fontColor=#FFFFFF;" parent="1" vertex="1">
          <mxGeometry x="360" y="415" width="240" height="60" as="geometry" />
        </mxCell>
        <mxCell id="lMZu1XvxjfdbiQU4B4vd-2" value="Phần mềm ứng dụng" style="rounded=1;whiteSpace=wrap;html=1;fontFamily=Aptos;fontSize=20;fillColor=#00CC66;strokeColor=none;fontColor=#FFFFFF;" parent="1" vertex="1">
          <mxGeometry x="360" y="210" width="240" height="60" as="geometry" />
        </mxCell>
        <mxCell id="lMZu1XvxjfdbiQU4B4vd-3" value="Hệ điều hành" style="rounded=1;whiteSpace=wrap;html=1;fontFamily=Aptos;fontSize=20;fillColor=#3399FF;strokeColor=none;fontColor=#FFFFFF;" parent="1" vertex="1">
          <mxGeometry x="360" y="313.09000000000003" width="240" height="60" as="geometry" />
        </mxCell>
        <mxCell id="lMZu1XvxjfdbiQU4B4vd-5" value="" style="html=1;shadow=0;dashed=0;align=center;verticalAlign=middle;shape=mxgraph.arrows2.arrow;dy=0.38;dx=22.79;notch=0;strokeColor=none;fontFamily=Aptos;fontSize=20;fontColor=#FFFFFF;fillColor=#00CC66;rotation=90;" parent="1" vertex="1">
          <mxGeometry x="402.31" y="270" width="38.49" height="43.09" as="geometry" />
        </mxCell>
        <mxCell id="lMZu1XvxjfdbiQU4B4vd-6" value="" style="html=1;shadow=0;dashed=0;align=center;verticalAlign=middle;shape=mxgraph.arrows2.arrow;dy=0.38;dx=22.79;notch=0;strokeColor=none;fontFamily=Aptos;fontSize=20;fontColor=#FFFFFF;fillColor=#3399FF;rotation=-90;" parent="1" vertex="1">
          <mxGeometry x="520" y="270" width="38.49" height="43.09" as="geometry" />
        </mxCell>
        <mxCell id="lMZu1XvxjfdbiQU4B4vd-7" value="" style="html=1;shadow=0;dashed=0;align=center;verticalAlign=middle;shape=mxgraph.arrows2.arrow;dy=0.38;dx=22.79;notch=0;strokeColor=none;fontFamily=Aptos;fontSize=20;fontColor=#FFFFFF;fillColor=#3399FF;rotation=90;" parent="1" vertex="1">
          <mxGeometry x="402.31" y="373.09000000000003" width="38.49" height="43.09" as="geometry" />
        </mxCell>
        <mxCell id="lMZu1XvxjfdbiQU4B4vd-8" value="" style="html=1;shadow=0;dashed=0;align=center;verticalAlign=middle;shape=mxgraph.arrows2.arrow;dy=0.38;dx=22.79;notch=0;strokeColor=none;fontFamily=Aptos;fontSize=20;fontColor=#FFFFFF;fillColor=#FF6666;rotation=-90;" parent="1" vertex="1">
          <mxGeometry x="520" y="373.09" width="38.49" height="43.09" as="geometry" />
        </mxCell>
        <mxCell id="D8as-lWLarUxc-4Y6syv-1" value="Người dùng" style="sketch=0;aspect=fixed;pointerEvents=1;shadow=0;dashed=0;html=1;strokeColor=#23445d;labelPosition=center;verticalLabelPosition=bottom;verticalAlign=top;align=center;fillColor=#bac8d3;shape=mxgraph.azure.user;fontFamily=Aptos;fontSize=20;fontColor=#4D4D4D;" vertex="1" parent="1">
          <mxGeometry x="456.5" y="70" width="47" height="50" as="geometry" />
        </mxCell>
        <mxCell id="D8as-lWLarUxc-4Y6syv-2" value="" style="shape=doubleArrow;direction=south;whiteSpace=wrap;html=1;arrowWidth=0.5622248331705729;arrowSize=0.3853330230712891;fontColor=#4D4D4D;strokeColor=none;fillColor=#4D4D4D;" vertex="1" parent="1">
          <mxGeometry x="458.88" y="150" width="44.62" height="50" as="geometry" />
        </mxCell>
      </root>
    </mxGraphModel>
  </diagram>
  <diagram name="for quiz" id="JT40v2WXce4WVpBacanI">
    <mxGraphModel dx="1406" dy="818" grid="1" gridSize="10" guides="1" tooltips="1" connect="1" arrows="1" fold="1" page="1" pageScale="1" pageWidth="1250" pageHeight="650" math="0" shadow="0">
      <root>
        <mxCell id="Ew6roOy2Qa2VNyjBb99Y-0" />
        <mxCell id="Ew6roOy2Qa2VNyjBb99Y-1" parent="Ew6roOy2Qa2VNyjBb99Y-0" />
        <mxCell id="Ew6roOy2Qa2VNyjBb99Y-2" value="Phần cứng" style="rounded=1;whiteSpace=wrap;html=1;fontFamily=Segoe UI Variable Display;fontSize=20;fillColor=none;strokeColor=default;fontColor=#000000;" vertex="1" parent="Ew6roOy2Qa2VNyjBb99Y-1">
          <mxGeometry x="40" y="325" width="240" height="60" as="geometry" />
        </mxCell>
        <mxCell id="Ew6roOy2Qa2VNyjBb99Y-3" value="Phần mềm ứng dụng" style="rounded=1;whiteSpace=wrap;html=1;fontFamily=Segoe UI Variable Display;fontSize=20;fillColor=none;strokeColor=default;fontColor=#000000;" vertex="1" parent="Ew6roOy2Qa2VNyjBb99Y-1">
          <mxGeometry x="40" y="120" width="240" height="60" as="geometry" />
        </mxCell>
        <mxCell id="Ew6roOy2Qa2VNyjBb99Y-4" value="Hệ điều hành" style="rounded=1;whiteSpace=wrap;html=1;fontFamily=Segoe UI Variable Display;fontSize=20;fillColor=none;strokeColor=default;fontColor=#000000;" vertex="1" parent="Ew6roOy2Qa2VNyjBb99Y-1">
          <mxGeometry x="40" y="223.09" width="240" height="60" as="geometry" />
        </mxCell>
        <mxCell id="Ew6roOy2Qa2VNyjBb99Y-5" value="" style="html=1;shadow=0;dashed=0;align=center;verticalAlign=middle;shape=mxgraph.arrows2.arrow;dy=0.38;dx=22.79;notch=0;strokeColor=default;fontFamily=Segoe UI Variable Display;fontSize=20;fontColor=#000000;fillColor=none;rotation=90;" vertex="1" parent="Ew6roOy2Qa2VNyjBb99Y-1">
          <mxGeometry x="82.31" y="180" width="38.49" height="43.09" as="geometry" />
        </mxCell>
        <mxCell id="Ew6roOy2Qa2VNyjBb99Y-6" value="" style="html=1;shadow=0;dashed=0;align=center;verticalAlign=middle;shape=mxgraph.arrows2.arrow;dy=0.38;dx=22.79;notch=0;strokeColor=default;fontFamily=Segoe UI Variable Display;fontSize=20;fontColor=#000000;fillColor=none;rotation=-90;" vertex="1" parent="Ew6roOy2Qa2VNyjBb99Y-1">
          <mxGeometry x="200" y="180" width="38.49" height="43.09" as="geometry" />
        </mxCell>
        <mxCell id="Ew6roOy2Qa2VNyjBb99Y-7" value="" style="html=1;shadow=0;dashed=0;align=center;verticalAlign=middle;shape=mxgraph.arrows2.arrow;dy=0.38;dx=22.79;notch=0;strokeColor=default;fontFamily=Segoe UI Variable Display;fontSize=20;fontColor=#000000;fillColor=none;rotation=90;" vertex="1" parent="Ew6roOy2Qa2VNyjBb99Y-1">
          <mxGeometry x="82.31" y="283.09000000000003" width="38.49" height="43.09" as="geometry" />
        </mxCell>
        <mxCell id="Ew6roOy2Qa2VNyjBb99Y-8" value="" style="html=1;shadow=0;dashed=0;align=center;verticalAlign=middle;shape=mxgraph.arrows2.arrow;dy=0.38;dx=22.79;notch=0;strokeColor=default;fontFamily=Segoe UI Variable Display;fontSize=20;fontColor=#000000;fillColor=none;rotation=-90;" vertex="1" parent="Ew6roOy2Qa2VNyjBb99Y-1">
          <mxGeometry x="200" y="283.09" width="38.49" height="43.09" as="geometry" />
        </mxCell>
        <mxCell id="vu8eXLvhVjtXYH3lNaVv-0" value="Hệ điều hành" style="rounded=1;whiteSpace=wrap;html=1;fontFamily=Segoe UI Variable Display;fontSize=20;fillColor=none;strokeColor=default;fontColor=#000000;" vertex="1" parent="Ew6roOy2Qa2VNyjBb99Y-1">
          <mxGeometry x="320" y="325" width="240" height="60" as="geometry" />
        </mxCell>
        <mxCell id="vu8eXLvhVjtXYH3lNaVv-1" value="Phần mềm ứng dụng" style="rounded=1;whiteSpace=wrap;html=1;fontFamily=Segoe UI Variable Display;fontSize=20;fillColor=none;strokeColor=default;fontColor=#000000;" vertex="1" parent="Ew6roOy2Qa2VNyjBb99Y-1">
          <mxGeometry x="320" y="120" width="240" height="60" as="geometry" />
        </mxCell>
        <mxCell id="vu8eXLvhVjtXYH3lNaVv-2" value="Phần cứng" style="rounded=1;whiteSpace=wrap;html=1;fontFamily=Segoe UI Variable Display;fontSize=20;fillColor=none;strokeColor=default;fontColor=#000000;" vertex="1" parent="Ew6roOy2Qa2VNyjBb99Y-1">
          <mxGeometry x="320" y="223.09" width="240" height="60" as="geometry" />
        </mxCell>
        <mxCell id="vu8eXLvhVjtXYH3lNaVv-3" value="" style="html=1;shadow=0;dashed=0;align=center;verticalAlign=middle;shape=mxgraph.arrows2.arrow;dy=0.38;dx=22.79;notch=0;strokeColor=default;fontFamily=Segoe UI Variable Display;fontSize=20;fontColor=#000000;fillColor=none;rotation=90;" vertex="1" parent="Ew6roOy2Qa2VNyjBb99Y-1">
          <mxGeometry x="362.31" y="180" width="38.49" height="43.09" as="geometry" />
        </mxCell>
        <mxCell id="vu8eXLvhVjtXYH3lNaVv-4" value="" style="html=1;shadow=0;dashed=0;align=center;verticalAlign=middle;shape=mxgraph.arrows2.arrow;dy=0.38;dx=22.79;notch=0;strokeColor=default;fontFamily=Segoe UI Variable Display;fontSize=20;fontColor=#000000;fillColor=none;rotation=-90;" vertex="1" parent="Ew6roOy2Qa2VNyjBb99Y-1">
          <mxGeometry x="480" y="180" width="38.49" height="43.09" as="geometry" />
        </mxCell>
        <mxCell id="vu8eXLvhVjtXYH3lNaVv-5" value="" style="html=1;shadow=0;dashed=0;align=center;verticalAlign=middle;shape=mxgraph.arrows2.arrow;dy=0.38;dx=22.79;notch=0;strokeColor=default;fontFamily=Segoe UI Variable Display;fontSize=20;fontColor=#000000;fillColor=none;rotation=90;" vertex="1" parent="Ew6roOy2Qa2VNyjBb99Y-1">
          <mxGeometry x="362.31" y="283.09000000000003" width="38.49" height="43.09" as="geometry" />
        </mxCell>
        <mxCell id="vu8eXLvhVjtXYH3lNaVv-6" value="" style="html=1;shadow=0;dashed=0;align=center;verticalAlign=middle;shape=mxgraph.arrows2.arrow;dy=0.38;dx=22.79;notch=0;strokeColor=default;fontFamily=Segoe UI Variable Display;fontSize=20;fontColor=#000000;fillColor=none;rotation=-90;" vertex="1" parent="Ew6roOy2Qa2VNyjBb99Y-1">
          <mxGeometry x="480" y="283.09" width="38.49" height="43.09" as="geometry" />
        </mxCell>
        <mxCell id="vu8eXLvhVjtXYH3lNaVv-7" value="Hệ điều hành" style="rounded=1;whiteSpace=wrap;html=1;fontFamily=Segoe UI Variable Display;fontSize=20;fillColor=none;strokeColor=default;fontColor=#000000;" vertex="1" parent="Ew6roOy2Qa2VNyjBb99Y-1">
          <mxGeometry x="600" y="325" width="240" height="60" as="geometry" />
        </mxCell>
        <mxCell id="vu8eXLvhVjtXYH3lNaVv-8" value="Phần cứng" style="rounded=1;whiteSpace=wrap;html=1;fontFamily=Segoe UI Variable Display;fontSize=20;fillColor=none;strokeColor=default;fontColor=#000000;" vertex="1" parent="Ew6roOy2Qa2VNyjBb99Y-1">
          <mxGeometry x="600" y="120" width="240" height="60" as="geometry" />
        </mxCell>
        <mxCell id="vu8eXLvhVjtXYH3lNaVv-9" value="Phần mềm ứng dụng" style="rounded=1;whiteSpace=wrap;html=1;fontFamily=Segoe UI Variable Display;fontSize=20;fillColor=none;strokeColor=default;fontColor=#000000;" vertex="1" parent="Ew6roOy2Qa2VNyjBb99Y-1">
          <mxGeometry x="600" y="223.09" width="240" height="60" as="geometry" />
        </mxCell>
        <mxCell id="vu8eXLvhVjtXYH3lNaVv-10" value="" style="html=1;shadow=0;dashed=0;align=center;verticalAlign=middle;shape=mxgraph.arrows2.arrow;dy=0.38;dx=22.79;notch=0;strokeColor=default;fontFamily=Segoe UI Variable Display;fontSize=20;fontColor=#000000;fillColor=none;rotation=90;" vertex="1" parent="Ew6roOy2Qa2VNyjBb99Y-1">
          <mxGeometry x="642.31" y="180" width="38.49" height="43.09" as="geometry" />
        </mxCell>
        <mxCell id="vu8eXLvhVjtXYH3lNaVv-11" value="" style="html=1;shadow=0;dashed=0;align=center;verticalAlign=middle;shape=mxgraph.arrows2.arrow;dy=0.38;dx=22.79;notch=0;strokeColor=default;fontFamily=Segoe UI Variable Display;fontSize=20;fontColor=#000000;fillColor=none;rotation=-90;" vertex="1" parent="Ew6roOy2Qa2VNyjBb99Y-1">
          <mxGeometry x="760" y="180" width="38.49" height="43.09" as="geometry" />
        </mxCell>
        <mxCell id="vu8eXLvhVjtXYH3lNaVv-12" value="" style="html=1;shadow=0;dashed=0;align=center;verticalAlign=middle;shape=mxgraph.arrows2.arrow;dy=0.38;dx=22.79;notch=0;strokeColor=default;fontFamily=Segoe UI Variable Display;fontSize=20;fontColor=#000000;fillColor=none;rotation=90;" vertex="1" parent="Ew6roOy2Qa2VNyjBb99Y-1">
          <mxGeometry x="642.31" y="283.09000000000003" width="38.49" height="43.09" as="geometry" />
        </mxCell>
        <mxCell id="vu8eXLvhVjtXYH3lNaVv-13" value="" style="html=1;shadow=0;dashed=0;align=center;verticalAlign=middle;shape=mxgraph.arrows2.arrow;dy=0.38;dx=22.79;notch=0;strokeColor=default;fontFamily=Segoe UI Variable Display;fontSize=20;fontColor=#000000;fillColor=none;rotation=-90;" vertex="1" parent="Ew6roOy2Qa2VNyjBb99Y-1">
          <mxGeometry x="760" y="283.09" width="38.49" height="43.09" as="geometry" />
        </mxCell>
        <mxCell id="vu8eXLvhVjtXYH3lNaVv-14" value="Phần cứng" style="rounded=1;whiteSpace=wrap;html=1;fontFamily=Segoe UI Variable Display;fontSize=20;fillColor=none;strokeColor=default;fontColor=#000000;" vertex="1" parent="Ew6roOy2Qa2VNyjBb99Y-1">
          <mxGeometry x="880" y="325" width="240" height="60" as="geometry" />
        </mxCell>
        <mxCell id="vu8eXLvhVjtXYH3lNaVv-15" value="Hệ điều hành" style="rounded=1;whiteSpace=wrap;html=1;fontFamily=Segoe UI Variable Display;fontSize=20;fillColor=none;strokeColor=default;fontColor=#000000;" vertex="1" parent="Ew6roOy2Qa2VNyjBb99Y-1">
          <mxGeometry x="880" y="120" width="240" height="60" as="geometry" />
        </mxCell>
        <mxCell id="vu8eXLvhVjtXYH3lNaVv-16" value="Phần mềm ứng dụng" style="rounded=1;whiteSpace=wrap;html=1;fontFamily=Segoe UI Variable Display;fontSize=20;fillColor=none;strokeColor=default;fontColor=#000000;" vertex="1" parent="Ew6roOy2Qa2VNyjBb99Y-1">
          <mxGeometry x="880" y="223.09" width="240" height="60" as="geometry" />
        </mxCell>
        <mxCell id="vu8eXLvhVjtXYH3lNaVv-17" value="" style="html=1;shadow=0;dashed=0;align=center;verticalAlign=middle;shape=mxgraph.arrows2.arrow;dy=0.38;dx=22.79;notch=0;strokeColor=default;fontFamily=Segoe UI Variable Display;fontSize=20;fontColor=#000000;fillColor=none;rotation=90;" vertex="1" parent="Ew6roOy2Qa2VNyjBb99Y-1">
          <mxGeometry x="922.31" y="180" width="38.49" height="43.09" as="geometry" />
        </mxCell>
        <mxCell id="vu8eXLvhVjtXYH3lNaVv-18" value="" style="html=1;shadow=0;dashed=0;align=center;verticalAlign=middle;shape=mxgraph.arrows2.arrow;dy=0.38;dx=22.79;notch=0;strokeColor=default;fontFamily=Segoe UI Variable Display;fontSize=20;fontColor=#000000;fillColor=none;rotation=-90;" vertex="1" parent="Ew6roOy2Qa2VNyjBb99Y-1">
          <mxGeometry x="1040" y="180" width="38.49" height="43.09" as="geometry" />
        </mxCell>
        <mxCell id="vu8eXLvhVjtXYH3lNaVv-19" value="" style="html=1;shadow=0;dashed=0;align=center;verticalAlign=middle;shape=mxgraph.arrows2.arrow;dy=0.38;dx=22.79;notch=0;strokeColor=default;fontFamily=Segoe UI Variable Display;fontSize=20;fontColor=#000000;fillColor=none;rotation=90;" vertex="1" parent="Ew6roOy2Qa2VNyjBb99Y-1">
          <mxGeometry x="922.31" y="283.09000000000003" width="38.49" height="43.09" as="geometry" />
        </mxCell>
        <mxCell id="vu8eXLvhVjtXYH3lNaVv-20" value="" style="html=1;shadow=0;dashed=0;align=center;verticalAlign=middle;shape=mxgraph.arrows2.arrow;dy=0.38;dx=22.79;notch=0;strokeColor=default;fontFamily=Segoe UI Variable Display;fontSize=20;fontColor=#000000;fillColor=none;rotation=-90;" vertex="1" parent="Ew6roOy2Qa2VNyjBb99Y-1">
          <mxGeometry x="1040" y="283.09" width="38.49" height="43.09" as="geometry" />
        </mxCell>
        <mxCell id="vu8eXLvhVjtXYH3lNaVv-21" value="A" style="text;html=1;strokeColor=none;fillColor=none;align=center;verticalAlign=middle;whiteSpace=wrap;rounded=0;fontColor=#000000;fontFamily=Segoe UI Variable Display;fontSize=20;" vertex="1" parent="Ew6roOy2Qa2VNyjBb99Y-1">
          <mxGeometry x="130" y="385" width="60" height="30" as="geometry" />
        </mxCell>
        <mxCell id="vu8eXLvhVjtXYH3lNaVv-22" value="B" style="text;html=1;strokeColor=none;fillColor=none;align=center;verticalAlign=middle;whiteSpace=wrap;rounded=0;fontColor=#000000;fontFamily=Segoe UI Variable Display;fontSize=20;" vertex="1" parent="Ew6roOy2Qa2VNyjBb99Y-1">
          <mxGeometry x="410" y="385" width="60" height="30" as="geometry" />
        </mxCell>
        <mxCell id="vu8eXLvhVjtXYH3lNaVv-23" value="C" style="text;html=1;strokeColor=none;fillColor=none;align=center;verticalAlign=middle;whiteSpace=wrap;rounded=0;fontColor=#000000;fontFamily=Segoe UI Variable Display;fontSize=20;" vertex="1" parent="Ew6roOy2Qa2VNyjBb99Y-1">
          <mxGeometry x="690" y="385" width="60" height="30" as="geometry" />
        </mxCell>
        <mxCell id="vu8eXLvhVjtXYH3lNaVv-24" value="D" style="text;html=1;strokeColor=none;fillColor=none;align=center;verticalAlign=middle;whiteSpace=wrap;rounded=0;fontColor=#000000;fontFamily=Segoe UI Variable Display;fontSize=20;" vertex="1" parent="Ew6roOy2Qa2VNyjBb99Y-1">
          <mxGeometry x="970" y="385" width="60" height="30" as="geometry" />
        </mxCell>
      </root>
    </mxGraphModel>
  </diagram>
</mxfile>
